<?xml version="1.0" encoding="utf-8"?>
<!-- Generator: Adobe Illustrator 20.1.0, SVG Export Plug-In . SVG Version: 6.00 Build 0)  -->
<svg version="1.1" id="Calque_1" xmlns="http://www.w3.org/2000/svg" xmlns:xlink="http://www.w3.org/1999/xlink" x="0px" y="0px"
	 viewBox="0 0 5669.3 5669.3" style="enable-background:new 0 0 5669.3 5669.3;" xml:space="preserve">
<style type="text/css">
	.st0{opacity:6.000000e-02;fill:#FFFFFF;stroke:#1D1D1B;stroke-miterlimit:10;}
	.st1{fill:#FFFFFF;stroke:#1D1D1B;stroke-miterlimit:10;}
	.st2{fill:#FFD7A3;}
	.st3{fill:#FDC88E;}
	.st4{fill:#734A3E;}
	.st5{fill:#623F33;}
	.st6{fill:#FFE1B2;}
	.st7{fill:#E4B07B;}
	.st8{fill:#00BEA4;}
	.st9{fill:#00AB9A;}
</style>
<circle class="st0" cx="2852.9" cy="3040" r="2285"/>
<circle class="st0" cx="2852.9" cy="3040" r="2154.3"/>
<circle class="st1" cx="2852.9" cy="3040" r="2050"/>
<g>
	<path class="st2" d="M3852.1,4696.1l-64.6-516.8c-9.8-78-63.4-143.5-138-168.3l-249.1-83c-34.2-11.4-71.7-4.1-98.1,18.3l-73.4-24.5
		c-41.7-13.9-69.8-52.9-69.8-96.8v-164.6l219.8-91.6c114.1-47.5,188.4-159,188.4-282.6v-51c84.6,0,153.1-68.5,153.1-153.1
		c0-38.1-14-73-37.1-99.8c43.3-157.7,165.1-656.5,37.1-869.8l51-204.1c0,0-535.9,12.8-816.6,102.1l102.1-102.1
		c0,0-717.7,0-867.5,255.1l0,0c0,0-255.2-2.1-255.2,306.2c0,112.8,62.9,394.6,90,510.4c-24.2,27.1-38.9,62.8-38.9,102
		c0,84.6,68.5,153.1,153.1,153.1v51c0,123.6,74.3,235.1,188.4,282.7l219.8,91.6V3825c0,43.9-28.1,82.9-69.8,96.8l-73.4,24.5
		c-26.4-22.5-63.9-29.7-98.1-18.3l-249.1,83c-74.6,24.9-128.3,90.3-138,168.3l-64.6,516.8c-11.4,91.4,59.8,172.1,151.9,172.1h1.4
		h1691.6h1.4C3792.2,4868.2,3863.5,4787.5,3852.1,4696.1z"/>
	<g>
		<path class="st3" d="M3159.1,3660.4l-612.4,0V3825c0,36.7-20.3,69.1-51.1,87.1C2923.5,3987,3159.1,3660.4,3159.1,3660.4z"/>
	</g>
	<g>
		<path class="st4" d="M2036.3,3030.9c0,0-102.1-417.7-102.1-561.4c0-308.3,255.2-306.2,255.2-306.2l0,0
			c149.9-255.1,867.5-255.1,867.5-255.1l-102.1,102.1c280.7-89.3,816.6-102.1,816.6-102.1l-51,204.1c153.1,255.2-51,918.6-51,918.6
			H2036.3z"/>
	</g>
	<g>
		<path class="st5" d="M3057,1908.2c0,0-717.7,0-867.5,255.1l0,0c0,0-255.2-2.1-255.2,306.2c0,143.7,102.1,561.4,102.1,561.4
			s1061.1-474.2,1735.2-1122.8c0,0-535.9,12.8-816.6,102.1L3057,1908.2z"/>
	</g>
	<path class="st6" d="M3567.4,2928.9v-102.1c0-140.9-114.2-255.2-255.2-255.2h-918.6c-140.9,0-255.2,114.2-255.2,255.2v102.1
		c-84.6,0-153.1,68.5-153.1,153.1s68.5,153.1,153.1,153.1v51c0,123.6,74.3,235.1,188.4,282.7l329.8,137.4
		c62.2,25.9,128.9,39.3,196.3,39.3l0,0c67.4,0,134.1-13.3,196.3-39.3l329.8-137.4c114.1-47.5,188.4-159,188.4-282.6v-51
		c84.6,0,153.1-68.5,153.1-153.1S3651.9,2928.9,3567.4,2928.9z"/>
	<g>
		<path class="st5" d="M2495.6,3133L2495.6,3133c-28.1,0-51-23-51-51v-51c0-28.1,23-51,51-51l0,0c28.1,0,51,23,51,51v51
			C2546.7,3110.1,2523.7,3133,2495.6,3133z"/>
	</g>
	<g>
		<path class="st5" d="M3210.1,3133L3210.1,3133c-28.1,0-51-23-51-51v-51c0-28.1,23-51,51-51l0,0c28.1,0,51,23,51,51v51
			C3261.2,3110.1,3238.2,3133,3210.1,3133z"/>
	</g>
	<g>
		<g>
			<path class="st7" d="M2852.9,3491.7c-90.7,0-175.6-22.3-232.8-61.3c-23.3-15.8-29.4-47.6-13.5-70.9
				c15.8-23.3,47.6-29.3,70.9-13.5c40.1,27.3,105.7,43.6,175.4,43.6c69.7,0,135.3-16.3,175.4-43.6c23.3-15.9,55-9.8,70.9,13.5
				c15.9,23.3,9.8,55-13.5,70.9C3028.5,3469.3,2943.6,3491.7,2852.9,3491.7z"/>
		</g>
	</g>
	<g>
		<path class="st8" d="M3852.1,4696.1l-64.6-516.8c-9.7-78-63.4-143.5-138-168.3l-249.1-83c-43.4-14.5-92.2,1-116.7,39.6
			c-90.5,142.5-249.5,237.2-430.8,237.2c-181.3,0-340.3-94.7-430.8-237.2c-24.5-38.6-73.3-54.1-116.7-39.6l-249.1,83
			c-74.6,24.9-128.3,90.3-138,168.3l-64.6,516.8c-11.4,91.4,59.8,172.1,151.9,172.1h1694.5
			C3792.2,4868.2,3863.5,4787.5,3852.1,4696.1z"/>
	</g>
	<g>
		<path class="st9" d="M1960.8,4078.2c-22.7,28.7-37.8,63.3-42.5,101.1l-64.6,516.8c-11.4,91.4,59.8,172.1,151.9,172.1h285.9V4536
			c0-49.1-17.7-96.6-49.8-133.7L1960.8,4078.2z"/>
	</g>
	<g>
		<path class="st9" d="M3744.9,4078.2c22.7,28.7,37.8,63.3,42.5,101.1l64.6,516.8c11.4,91.4-59.8,172.1-151.9,172.1h-285.9V4536
			c0-49.1,17.7-96.6,49.8-133.7L3744.9,4078.2z"/>
	</g>
	<path class="st2" d="M2406.3,3463c-41.4-44.3-63.8-102.8-63.8-163.5v-578.3c162.4-12.2,674.6-56.5,969.7-149.5h-918.6
		c-17.6,0-34.6,2-51,5.6v-0.5c-116.5,23.6-204.1,126.6-204.1,250v102.1c-84.6,0-153.1,68.5-153.1,153.1s68.5,153.1,153.1,153.1v51
		c0,123.6,74.3,235.1,188.4,282.7l329.7,137.4c16.1,6.7,32.6,12.5,49.3,17.5C2560.1,3617.1,2463.1,3523.9,2406.3,3463z"/>
</g>
</svg>
